<svg width="47" height="47" viewBox="0 0 47 47" fill="none" xmlns="http://www.w3.org/2000/svg">
<path d="M14.4347 25.3814C14.4347 26.648 14.6904 27.8473 15.2019 28.9793C15.7133 30.1124 16.444 31.1051 17.3939 31.9576C17.3696 31.8358 17.3574 31.7262 17.3574 31.6288V31.3C17.3574 30.5206 17.5035 29.7899 17.7958 29.1079C18.0881 28.426 18.5143 27.8049 19.0745 27.2447L23.2028 23.1894L27.3312 27.2447C27.8914 27.8049 28.3176 28.426 28.6099 29.1079C28.9022 29.7899 29.0483 30.5206 29.0483 31.3V31.6288C29.0483 31.7262 29.0361 31.8358 29.0118 31.9576C29.9617 31.1051 30.6923 30.1124 31.2038 28.9793C31.7153 27.8473 31.971 26.648 31.971 25.3814C31.971 24.1636 31.746 23.0126 31.2959 21.9282C30.8448 20.8449 30.193 19.877 29.3406 19.0245C28.8535 19.3411 28.342 19.5784 27.8061 19.7362C27.2703 19.895 26.7223 19.9744 26.1621 19.9744C24.652 19.9744 23.3431 19.4751 22.2354 18.4765C21.1267 17.4779 20.4871 16.2479 20.3166 14.7865C19.3668 15.5903 18.5265 16.4243 17.7958 17.2884C17.0651 18.1535 16.4504 19.0304 15.9516 19.9189C15.4518 20.8083 15.0742 21.7159 14.819 22.6414C14.5628 23.5669 14.4347 24.4803 14.4347 25.3814ZM23.1721 27.6653L21.0897 29.7112C20.8218 29.9791 20.6147 30.2835 20.4686 30.6245C20.3225 30.9655 20.2494 31.3187 20.2494 31.684C20.2494 32.4634 20.5358 33.1332 21.1087 33.6934C21.6806 34.2536 22.3684 34.5337 23.1721 34.5337C23.9759 34.5337 24.6642 34.2536 25.237 33.6934C25.8089 33.1332 26.0948 32.4634 26.0948 31.684C26.0948 31.2943 26.0218 30.9348 25.8756 30.6055C25.7295 30.2772 25.5225 29.9791 25.2546 29.7112L23.1721 27.6653ZM23.1721 9.69047V14.513C23.1721 15.3411 23.4585 16.0352 24.0314 16.5954C24.6033 17.1556 25.3033 17.4357 26.1314 17.4357C26.5698 17.4357 26.978 17.3446 27.356 17.1624C27.733 16.9793 28.0677 16.705 28.36 16.3397L29.0176 15.5359C30.8199 16.5589 32.2448 17.9837 33.2921 19.8104C34.3394 21.6371 34.863 23.6221 34.863 25.7655C34.863 29.0292 33.7305 31.7936 31.4654 34.0587C29.2002 36.3238 26.4358 37.4564 23.1721 37.4564C19.9084 37.4564 17.144 36.3238 14.8789 34.0587C12.6138 31.7936 11.4812 29.0292 11.4812 25.7655C11.4812 22.6235 12.5348 19.6399 14.6421 16.8146C16.7484 13.9893 19.5918 11.6146 23.1721 9.69047Z" fill="white"/>
<path d="M14.4347 25.3814C14.4347 26.648 14.6904 27.8473 15.2019 28.9793C15.7133 30.1124 16.444 31.1051 17.3939 31.9576C17.3696 31.8358 17.3574 31.7262 17.3574 31.6288V31.3C17.3574 30.5206 17.5035 29.7899 17.7958 29.1079C18.0881 28.426 18.5143 27.8049 19.0745 27.2447L23.2028 23.1894L27.3312 27.2447C27.8914 27.8049 28.3176 28.426 28.6099 29.1079C28.9022 29.7899 29.0483 30.5206 29.0483 31.3V31.6288C29.0483 31.7262 29.0361 31.8358 29.0118 31.9576C29.9617 31.1051 30.6923 30.1124 31.2038 28.9793C31.7153 27.8473 31.971 26.648 31.971 25.3814C31.971 24.1636 31.746 23.0126 31.2959 21.9282C30.8448 20.8449 30.193 19.877 29.3406 19.0245C28.8535 19.3411 28.342 19.5784 27.8061 19.7362C27.2703 19.895 26.7223 19.9744 26.1621 19.9744C24.652 19.9744 23.3431 19.4751 22.2354 18.4765C21.1267 17.4779 20.4871 16.2479 20.3166 14.7865L17.7958 17.2884C17.0651 18.1535 16.4504 19.0304 15.9516 19.9189C15.4518 20.8083 15.0742 21.7159 14.819 22.6414C14.5628 23.5669 14.4347 24.4803 14.4347 25.3814Z" fill="white"/>
<path d="M23.1721 27.6653L21.0897 29.7112C20.8218 29.9791 20.6147 30.2835 20.4686 30.6245C20.3225 30.9655 20.2494 31.3187 20.2494 31.684C20.2494 32.4634 20.5358 33.1332 21.1087 33.6934C21.6806 34.2536 22.3684 34.5337 23.1721 34.5337C23.9759 34.5337 24.6642 34.2536 25.237 33.6934C25.8089 33.1332 26.0948 32.4634 26.0948 31.684C26.0948 31.2943 26.0218 30.9348 25.8756 30.6055C25.7295 30.2772 25.5225 29.9791 25.2546 29.7112L23.1721 27.6653Z" fill="white"/>
<path d="M14.4039 25.7655C14.4039 27.032 14.6597 28.2313 15.1711 29.3634C15.6826 30.4964 16.4133 31.4892 17.3632 32.3416C17.3388 32.2198 17.3267 32.1102 17.3267 32.0128V31.684C17.3267 30.9046 17.4728 30.1739 17.7651 29.492C18.0573 28.81 18.4836 28.1889 19.0438 27.6287L23.1721 23.5734L27.3005 27.6287C27.8607 28.1889 28.2869 28.81 28.5792 29.492C28.8714 30.1739 29.0176 30.9046 29.0176 31.684V32.0128C29.0176 32.1102 29.0054 32.2198 28.981 32.3416C29.9309 31.4892 30.6616 30.4964 31.1731 29.3634C31.6846 28.2313 31.9403 27.032 31.9403 25.7655C31.9403 24.5477 31.7153 23.3966 31.2652 22.3123C30.8141 21.2289 30.1623 20.261 29.3099 19.4085C28.8227 19.7252 28.3113 19.9624 27.7754 20.1202C27.2396 20.279 26.6916 20.3584 26.1314 20.3584C24.6213 20.3584 23.3124 19.8591 22.2047 18.8605C21.096 17.8619 20.4564 16.632 20.2859 15.1706C19.336 15.9743 18.4958 16.8083 17.7651 17.6724C17.0344 18.5376 16.4196 19.4144 15.9208 20.3029C15.421 21.1924 15.0435 22.0999 14.7883 23.0254C14.532 23.951 14.4039 24.8643 14.4039 25.7655ZM23.1721 27.6653L21.0897 29.7112C20.8218 29.9791 20.6147 30.2835 20.4686 30.6245C20.3225 30.9655 20.2494 31.3187 20.2494 31.684C20.2494 32.4634 20.5358 33.1332 21.1087 33.6934C21.6806 34.2536 22.3684 34.5337 23.1721 34.5337C23.9759 34.5337 24.6642 34.2536 25.237 33.6934C25.8089 33.1332 26.0948 32.4634 26.0948 31.684C26.0948 31.2943 26.0218 30.9348 25.8756 30.6055C25.7295 30.2772 25.5225 29.9791 25.2546 29.7112L23.1721 27.6653ZM23.1721 9.69047V14.513C23.1721 15.3411 23.4585 16.0352 24.0314 16.5954C24.6033 17.1556 25.3033 17.4357 26.1314 17.4357C26.5698 17.4357 26.978 17.3446 27.356 17.1624C27.733 16.9793 28.0677 16.705 28.36 16.3397L29.0176 15.5359C30.8199 16.5589 32.2448 17.9837 33.2921 19.8104C34.3394 21.6371 34.863 23.6221 34.863 25.7655C34.863 29.0292 33.7305 31.7936 31.4654 34.0587C29.2002 36.3238 26.4358 37.4564 23.1721 37.4564C19.9084 37.4564 17.144 36.3238 14.8789 34.0587C12.6138 31.7936 11.4812 29.0292 11.4812 25.7655C11.4812 22.6235 12.5348 19.6399 14.6421 16.8146C16.7484 13.9893 19.5918 11.6146 23.1721 9.69047Z" fill="#FF0700"/>
<path d="M46.1721 23.5734C46.1721 36.276 35.8747 46.5734 23.1721 46.5734C10.4696 46.5734 0.172119 36.276 0.172119 23.5734C0.172119 10.8709 10.4696 0.573425 23.1721 0.573425C35.8747 0.573425 46.1721 10.8709 46.1721 23.5734ZM5.92212 23.5734C5.92212 33.1003 13.6452 40.8234 23.1721 40.8234C32.699 40.8234 40.4221 33.1003 40.4221 23.5734C40.4221 14.0465 32.699 6.32343 23.1721 6.32343C13.6452 6.32343 5.92212 14.0465 5.92212 23.5734Z" fill="#FF0700"/>
</svg>
