<svg width="16" height="17" viewBox="0 0 16 17" fill="none" xmlns="http://www.w3.org/2000/svg">
<path d="M7.66667 11.5H8.33333V7.83333H7.66667V11.5ZM8 6.88467C8.11644 6.88467 8.214 6.84533 8.29267 6.76667C8.37133 6.688 8.41044 6.59044 8.41 6.474C8.40956 6.35756 8.37022 6.26022 8.292 6.182C8.21378 6.10378 8.11644 6.06444 8 6.064C7.88356 6.06356 7.78622 6.10289 7.708 6.182C7.62978 6.26111 7.59044 6.35867 7.59 6.47467C7.58956 6.59067 7.62889 6.688 7.708 6.76667C7.78711 6.84533 7.88444 6.88467 8 6.88467ZM8.002 14.5C7.17222 14.5 6.39222 14.3427 5.662 14.028C4.93178 13.7129 4.29644 13.2853 3.756 12.7453C3.21556 12.2053 2.78778 11.5707 2.47267 10.8413C2.15756 10.112 2 9.33222 2 8.502C2 7.67178 2.15756 6.89178 2.47267 6.162C2.78733 5.43178 3.21422 4.79644 3.75333 4.256C4.29244 3.71556 4.92733 3.28778 5.658 2.97267C6.38867 2.65756 7.16867 2.5 7.998 2.5C8.82733 2.5 9.60733 2.65756 10.338 2.97267C11.0682 3.28733 11.7036 3.71444 12.244 4.254C12.7844 4.79356 13.2122 5.42844 13.5273 6.15867C13.8424 6.88889 14 7.66867 14 8.498C14 9.32733 13.8427 10.1073 13.528 10.838C13.2133 11.5687 12.7858 12.204 12.2453 12.744C11.7049 13.284 11.0702 13.7118 10.3413 14.0273C9.61244 14.3429 8.83267 14.5004 8.002 14.5ZM8 13.8333C9.48889 13.8333 10.75 13.3167 11.7833 12.2833C12.8167 11.25 13.3333 9.98889 13.3333 8.5C13.3333 7.01111 12.8167 5.75 11.7833 4.71667C10.75 3.68333 9.48889 3.16667 8 3.16667C6.51111 3.16667 5.25 3.68333 4.21667 4.71667C3.18333 5.75 2.66667 7.01111 2.66667 8.5C2.66667 9.98889 3.18333 11.25 4.21667 12.2833C5.25 13.3167 6.51111 13.8333 8 13.8333Z" fill="#BDC3C9"/>
</svg>
