<svg width="32" height="44" viewBox="0 0 32 44" fill="none" xmlns="http://www.w3.org/2000/svg">
<path d="M5.44 29.28C5.94922 29.1315 6.49657 29.1913 6.96167 29.4464C7.42676 29.7014 7.77148 30.1308 7.92 30.64C8.06852 31.1492 8.00867 31.6966 7.75362 32.1617C7.49858 32.6268 7.06922 32.9715 6.56 33.12C5.56 33.412 4.84 33.72 4.378 34C4.854 34.286 5.606 34.606 6.65 34.904C8.96 35.564 12.266 36 16 36C19.734 36 23.04 35.564 25.35 34.904C26.396 34.606 27.146 34.286 27.622 34C27.162 33.72 26.442 33.412 25.442 33.12C24.9408 32.9649 24.5206 32.6191 24.272 32.1572C24.0233 31.6952 23.9662 31.154 24.1129 30.6503C24.2595 30.1465 24.5982 29.7206 25.056 29.4643C25.5137 29.208 26.0539 29.1418 26.56 29.28C27.896 29.67 29.12 30.17 30.06 30.812C30.93 31.41 32 32.452 32 34C32 35.566 30.904 36.616 30.02 37.214C29.064 37.858 27.814 38.36 26.448 38.75C23.692 39.54 20 40 16 40C12 40 8.308 39.54 5.552 38.75C4.186 38.36 2.936 37.858 1.98 37.214C1.096 36.614 0 35.566 0 34C0 32.452 1.07 31.41 1.94 30.812C2.88 30.17 4.104 29.67 5.44 29.28ZM16 0C19.9782 0 23.7936 1.58035 26.6066 4.3934C29.4196 7.20644 31 11.0218 31 15C31 20.136 28.2 24.312 25.3 27.28C24.1472 28.4479 22.9084 29.5276 21.594 30.51C20.406 31.402 17.69 33.074 17.69 33.074C17.1749 33.3668 16.5925 33.5207 16 33.5207C15.4075 33.5207 14.8251 33.3668 14.31 33.074C12.9621 32.2924 11.6588 31.4364 10.406 30.51C9.08967 29.53 7.85068 28.4501 6.7 27.28C3.8 24.312 1 20.136 1 15C1 11.0218 2.58035 7.20644 5.3934 4.3934C8.20644 1.58035 12.0218 0 16 0ZM16 11C14.9391 11 13.9217 11.4214 13.1716 12.1716C12.4214 12.9217 12 13.9391 12 15C12 16.0609 12.4214 17.0783 13.1716 17.8284C13.9217 18.5786 14.9391 19 16 19C17.0609 19 18.0783 18.5786 18.8284 17.8284C19.5786 17.0783 20 16.0609 20 15C20 13.9391 19.5786 12.9217 18.8284 12.1716C18.0783 11.4214 17.0609 11 16 11Z" fill="#D9DAF5"/>
</svg>
