<svg width="317" height="49" viewBox="0 0 317 49" fill="none" xmlns="http://www.w3.org/2000/svg">
<path d="M70.4778 20.8674H67.7678V8.47735H63.8178C63.7244 10.2907 63.5911 11.8607 63.4178 13.1874C63.2511 14.5074 63.0478 15.634 62.8078 16.5674C62.5744 17.494 62.3044 18.2474 61.9978 18.8274C61.6978 19.4074 61.3678 19.8607 61.0078 20.1874C60.6478 20.5074 60.2611 20.7274 59.8478 20.8474C59.4344 20.9607 59.0011 21.0174 58.5478 21.0174C58.0678 21.0174 57.7178 20.974 57.4978 20.8874C57.2778 20.8007 57.1678 20.674 57.1678 20.5074V18.8274H57.9378C58.1111 18.8274 58.2844 18.8074 58.4578 18.7674C58.6378 18.7274 58.8144 18.644 58.9878 18.5174C59.1678 18.384 59.3411 18.194 59.5078 17.9474C59.6811 17.7007 59.8444 17.3707 59.9978 16.9574C60.1578 16.5374 60.3044 16.024 60.4378 15.4174C60.5778 14.8107 60.7011 14.0807 60.8078 13.2274C60.9211 12.374 61.0178 11.3874 61.0978 10.2674C61.1844 9.14069 61.2478 7.85402 61.2878 6.40735H70.4778V20.8674ZM78.4767 16.4874C77.7633 16.5207 77.1633 16.584 76.6767 16.6774C76.19 16.764 75.8 16.8774 75.5067 17.0174C75.2133 17.1574 75.0033 17.3207 74.8767 17.5074C74.75 17.694 74.6867 17.8974 74.6867 18.1174C74.6867 18.5507 74.8133 18.8607 75.0667 19.0474C75.3267 19.234 75.6633 19.3274 76.0767 19.3274C76.5833 19.3274 77.02 19.2374 77.3867 19.0574C77.76 18.8707 78.1233 18.5907 78.4767 18.2174V16.4874ZM72.8167 12.0374C73.9967 10.9574 75.4167 10.4174 77.0767 10.4174C77.6767 10.4174 78.2133 10.5174 78.6867 10.7174C79.16 10.9107 79.56 11.184 79.8867 11.5374C80.2133 11.884 80.46 12.3007 80.6267 12.7874C80.8 13.274 80.8867 13.8074 80.8867 14.3874V20.8674H79.7667C79.5333 20.8674 79.3533 20.834 79.2267 20.7674C79.1 20.694 79 20.5507 78.9267 20.3374L78.7067 19.5974C78.4467 19.8307 78.1933 20.0374 77.9467 20.2174C77.7 20.3907 77.4433 20.5374 77.1767 20.6574C76.91 20.7774 76.6233 20.8674 76.3167 20.9274C76.0167 20.994 75.6833 21.0274 75.3167 21.0274C74.8833 21.0274 74.4833 20.9707 74.1167 20.8574C73.75 20.7374 73.4333 20.5607 73.1667 20.3274C72.9 20.094 72.6933 19.804 72.5467 19.4574C72.4 19.1107 72.3267 18.7074 72.3267 18.2474C72.3267 17.9874 72.37 17.7307 72.4567 17.4774C72.5433 17.2174 72.6833 16.9707 72.8767 16.7374C73.0767 16.504 73.3333 16.284 73.6467 16.0774C73.96 15.8707 74.3433 15.6907 74.7967 15.5374C75.2567 15.384 75.79 15.2607 76.3967 15.1674C77.0033 15.0674 77.6967 15.0074 78.4767 14.9874V14.3874C78.4767 13.7007 78.33 13.194 78.0367 12.8674C77.7433 12.534 77.32 12.3674 76.7667 12.3674C76.3667 12.3674 76.0333 12.414 75.7667 12.5074C75.5067 12.6007 75.2767 12.7074 75.0767 12.8274C74.8767 12.9407 74.6933 13.044 74.5267 13.1374C74.3667 13.2307 74.1867 13.2774 73.9867 13.2774C73.8133 13.2774 73.6667 13.234 73.5467 13.1474C73.4267 13.054 73.33 12.9474 73.2567 12.8274L72.8167 12.0374ZM88.0329 19.2174C88.8863 19.2174 89.5229 18.944 89.9429 18.3974C90.3629 17.8507 90.5729 17.0507 90.5729 15.9974C90.5729 14.9507 90.3663 14.154 89.9529 13.6074C89.5463 13.0607 88.9229 12.7874 88.0829 12.7874C87.2429 12.7874 86.6029 13.0474 86.1629 13.5674C85.7229 14.0807 85.5029 14.8507 85.5029 15.8774C85.5029 16.964 85.7096 17.794 86.1229 18.3674C86.5429 18.934 87.1796 19.2174 88.0329 19.2174ZM88.7529 8.74736C88.1263 8.78735 87.5896 8.91069 87.1429 9.11735C86.7029 9.31735 86.3363 9.59069 86.0429 9.93735C85.7563 10.2774 85.5363 10.6874 85.3829 11.1674C85.2363 11.6407 85.1496 12.1674 85.1229 12.7474C85.2896 12.4874 85.4929 12.2507 85.7329 12.0374C85.9796 11.8174 86.2529 11.6307 86.5529 11.4774C86.8596 11.3174 87.1896 11.194 87.5429 11.1074C87.9029 11.0207 88.2863 10.9774 88.6929 10.9774C89.3729 10.9774 89.9863 11.0974 90.5329 11.3374C91.0796 11.5774 91.5429 11.9174 91.9229 12.3574C92.3096 12.7974 92.6029 13.3274 92.8029 13.9474C93.0096 14.5607 93.1129 15.2407 93.1129 15.9874C93.1129 16.7607 92.9896 17.4574 92.7429 18.0774C92.5029 18.6974 92.1596 19.2274 91.7129 19.6674C91.2729 20.1007 90.7396 20.434 90.1129 20.6674C89.4863 20.9007 88.7929 21.0174 88.0329 21.0174C87.2929 21.0174 86.6096 20.8974 85.9829 20.6574C85.3629 20.4174 84.8263 20.0274 84.3729 19.4874C83.9196 18.9474 83.5663 18.2474 83.3129 17.3874C83.0596 16.5207 82.9329 15.464 82.9329 14.2174C82.9329 13.1707 83.0296 12.1974 83.2229 11.2974C83.4163 10.3974 83.7329 9.61069 84.1729 8.93735C84.6129 8.25735 85.1896 7.71069 85.9029 7.29735C86.6163 6.88402 87.4963 6.63735 88.5429 6.55735L92.1929 6.27735L92.3229 7.55735C92.3496 7.83069 92.3096 8.06402 92.2029 8.25735C92.0963 8.44402 91.9063 8.54402 91.6329 8.55735L88.7529 8.74736ZM99.5693 10.4474C100.329 10.4474 101.019 10.5707 101.639 10.8174C102.266 11.064 102.799 11.414 103.239 11.8674C103.686 12.3207 104.029 12.874 104.269 13.5274C104.509 14.1807 104.629 14.9107 104.629 15.7174C104.629 16.5307 104.509 17.264 104.269 17.9174C104.029 18.5707 103.686 19.1274 103.239 19.5874C102.799 20.0474 102.266 20.4007 101.639 20.6474C101.019 20.894 100.329 21.0174 99.5693 21.0174C98.8027 21.0174 98.106 20.894 97.4793 20.6474C96.8527 20.4007 96.316 20.0474 95.8693 19.5874C95.4293 19.1274 95.086 18.5707 94.8393 17.9174C94.5993 17.264 94.4793 16.5307 94.4793 15.7174C94.4793 14.9107 94.5993 14.1807 94.8393 13.5274C95.086 12.874 95.4293 12.3207 95.8693 11.8674C96.316 11.414 96.8527 11.064 97.4793 10.8174C98.106 10.5707 98.8027 10.4474 99.5693 10.4474ZM99.5693 19.1174C100.423 19.1174 101.053 18.8307 101.459 18.2574C101.873 17.684 102.079 16.844 102.079 15.7374C102.079 14.6307 101.873 13.7874 101.459 13.2074C101.053 12.6274 100.423 12.3374 99.5693 12.3374C98.7027 12.3374 98.0593 12.6307 97.6393 13.2174C97.226 13.7974 97.0193 14.6374 97.0193 15.7374C97.0193 16.8374 97.226 17.6774 97.6393 18.2574C98.0593 18.8307 98.7027 19.1174 99.5693 19.1174ZM108.984 18.2074C109.264 18.5474 109.567 18.7874 109.894 18.9274C110.227 19.0674 110.587 19.1374 110.974 19.1374C111.347 19.1374 111.684 19.0674 111.984 18.9274C112.284 18.7874 112.537 18.574 112.744 18.2874C112.957 18.0007 113.12 17.6407 113.234 17.2074C113.347 16.7674 113.404 16.2507 113.404 15.6574C113.404 15.0574 113.354 14.5507 113.254 14.1374C113.16 13.7174 113.024 13.3774 112.844 13.1174C112.664 12.8574 112.444 12.6674 112.184 12.5474C111.93 12.4274 111.64 12.3674 111.314 12.3674C110.8 12.3674 110.364 12.4774 110.004 12.6974C109.644 12.9107 109.304 13.214 108.984 13.6074V18.2074ZM108.854 12.0074C109.274 11.534 109.75 11.1507 110.284 10.8574C110.817 10.564 111.444 10.4174 112.164 10.4174C112.724 10.4174 113.234 10.534 113.694 10.7674C114.16 11.0007 114.56 11.3407 114.894 11.7874C115.234 12.2274 115.494 12.774 115.674 13.4274C115.86 14.074 115.954 14.8174 115.954 15.6574C115.954 16.424 115.85 17.134 115.644 17.7874C115.437 18.4407 115.14 19.0074 114.754 19.4874C114.374 19.9674 113.91 20.344 113.364 20.6174C112.824 20.884 112.217 21.0174 111.544 21.0174C110.97 21.0174 110.48 20.9307 110.074 20.7574C109.667 20.5774 109.304 20.3307 108.984 20.0174V24.2174H106.514V10.6074H108.024C108.344 10.6074 108.554 10.7574 108.654 11.0574L108.854 12.0074ZM123.281 16.4874C122.568 16.5207 121.968 16.584 121.481 16.6774C120.995 16.764 120.605 16.8774 120.311 17.0174C120.018 17.1574 119.808 17.3207 119.681 17.5074C119.555 17.694 119.491 17.8974 119.491 18.1174C119.491 18.5507 119.618 18.8607 119.871 19.0474C120.131 19.234 120.468 19.3274 120.881 19.3274C121.388 19.3274 121.825 19.2374 122.191 19.0574C122.565 18.8707 122.928 18.5907 123.281 18.2174V16.4874ZM117.621 12.0374C118.801 10.9574 120.221 10.4174 121.881 10.4174C122.481 10.4174 123.018 10.5174 123.491 10.7174C123.965 10.9107 124.365 11.184 124.691 11.5374C125.018 11.884 125.265 12.3007 125.431 12.7874C125.605 13.274 125.691 13.8074 125.691 14.3874V20.8674H124.571C124.338 20.8674 124.158 20.834 124.031 20.7674C123.905 20.694 123.805 20.5507 123.731 20.3374L123.511 19.5974C123.251 19.8307 122.998 20.0374 122.751 20.2174C122.505 20.3907 122.248 20.5374 121.981 20.6574C121.715 20.7774 121.428 20.8674 121.121 20.9274C120.821 20.994 120.488 21.0274 120.121 21.0274C119.688 21.0274 119.288 20.9707 118.921 20.8574C118.555 20.7374 118.238 20.5607 117.971 20.3274C117.705 20.094 117.498 19.804 117.351 19.4574C117.205 19.1107 117.131 18.7074 117.131 18.2474C117.131 17.9874 117.175 17.7307 117.261 17.4774C117.348 17.2174 117.488 16.9707 117.681 16.7374C117.881 16.504 118.138 16.284 118.451 16.0774C118.765 15.8707 119.148 15.6907 119.601 15.5374C120.061 15.384 120.595 15.2607 121.201 15.1674C121.808 15.0674 122.501 15.0074 123.281 14.9874V14.3874C123.281 13.7007 123.135 13.194 122.841 12.8674C122.548 12.534 122.125 12.3674 121.571 12.3674C121.171 12.3674 120.838 12.414 120.571 12.5074C120.311 12.6007 120.081 12.7074 119.881 12.8274C119.681 12.9407 119.498 13.044 119.331 13.1374C119.171 13.2307 118.991 13.2774 118.791 13.2774C118.618 13.2774 118.471 13.234 118.351 13.1474C118.231 13.054 118.135 12.9474 118.061 12.8274L117.621 12.0374ZM136.642 12.4374H132.982V20.8674H130.512V12.4374H126.862V10.6074H136.642V12.4374ZM142.343 10.4474C143.103 10.4474 143.793 10.5707 144.413 10.8174C145.039 11.064 145.573 11.414 146.013 11.8674C146.459 12.3207 146.803 12.874 147.043 13.5274C147.283 14.1807 147.403 14.9107 147.403 15.7174C147.403 16.5307 147.283 17.264 147.043 17.9174C146.803 18.5707 146.459 19.1274 146.013 19.5874C145.573 20.0474 145.039 20.4007 144.413 20.6474C143.793 20.894 143.103 21.0174 142.343 21.0174C141.576 21.0174 140.879 20.894 140.253 20.6474C139.626 20.4007 139.089 20.0474 138.643 19.5874C138.203 19.1274 137.859 18.5707 137.613 17.9174C137.373 17.264 137.253 16.5307 137.253 15.7174C137.253 14.9107 137.373 14.1807 137.613 13.5274C137.859 12.874 138.203 12.3207 138.643 11.8674C139.089 11.414 139.626 11.064 140.253 10.8174C140.879 10.5707 141.576 10.4474 142.343 10.4474ZM142.343 19.1174C143.196 19.1174 143.826 18.8307 144.233 18.2574C144.646 17.684 144.853 16.844 144.853 15.7374C144.853 14.6307 144.646 13.7874 144.233 13.2074C143.826 12.6274 143.196 12.3374 142.343 12.3374C141.476 12.3374 140.833 12.6307 140.413 13.2174C139.999 13.7974 139.793 14.6374 139.793 15.7374C139.793 16.8374 139.999 17.6774 140.413 18.2574C140.833 18.8307 141.476 19.1174 142.343 19.1174ZM151.757 18.2074C152.037 18.5474 152.34 18.7874 152.667 18.9274C153 19.0674 153.36 19.1374 153.747 19.1374C154.12 19.1374 154.457 19.0674 154.757 18.9274C155.057 18.7874 155.31 18.574 155.517 18.2874C155.73 18.0007 155.894 17.6407 156.007 17.2074C156.12 16.7674 156.177 16.2507 156.177 15.6574C156.177 15.0574 156.127 14.5507 156.027 14.1374C155.934 13.7174 155.797 13.3774 155.617 13.1174C155.437 12.8574 155.217 12.6674 154.957 12.5474C154.704 12.4274 154.414 12.3674 154.087 12.3674C153.574 12.3674 153.137 12.4774 152.777 12.6974C152.417 12.9107 152.077 13.214 151.757 13.6074V18.2074ZM151.627 12.0074C152.047 11.534 152.524 11.1507 153.057 10.8574C153.59 10.564 154.217 10.4174 154.937 10.4174C155.497 10.4174 156.007 10.534 156.467 10.7674C156.934 11.0007 157.334 11.3407 157.667 11.7874C158.007 12.2274 158.267 12.774 158.447 13.4274C158.634 14.074 158.727 14.8174 158.727 15.6574C158.727 16.424 158.624 17.134 158.417 17.7874C158.21 18.4407 157.914 19.0074 157.527 19.4874C157.147 19.9674 156.684 20.344 156.137 20.6174C155.597 20.884 154.99 21.0174 154.317 21.0174C153.744 21.0174 153.254 20.9307 152.847 20.7574C152.44 20.5774 152.077 20.3307 151.757 20.0174V24.2174H149.287V10.6074H150.797C151.117 10.6074 151.327 10.7574 151.427 11.0574L151.627 12.0074ZM169.855 10.6074V20.8674H167.385V14.8774C167.385 14.724 167.391 14.5574 167.405 14.3774C167.425 14.1907 167.448 14.004 167.475 13.8174C167.341 14.124 167.195 14.394 167.035 14.6274C167.021 14.6407 166.955 14.734 166.835 14.9074C166.715 15.074 166.558 15.2907 166.365 15.5574C166.178 15.824 165.965 16.1274 165.725 16.4674C165.485 16.8007 165.241 17.1407 164.995 17.4874C164.415 18.3074 163.758 19.234 163.025 20.2674C162.931 20.4074 162.808 20.544 162.655 20.6774C162.508 20.8107 162.338 20.8774 162.145 20.8774H160.635V10.6174H163.105V16.6074C163.105 16.7607 163.095 16.9307 163.075 17.1174C163.061 17.2974 163.041 17.4807 163.015 17.6674C163.161 17.3407 163.308 17.0707 163.455 16.8574C163.461 16.844 163.525 16.754 163.645 16.5874C163.765 16.4207 163.918 16.204 164.105 15.9374C164.298 15.6707 164.515 15.3707 164.755 15.0374C164.995 14.6974 165.238 14.3507 165.485 13.9974C166.065 13.1774 166.725 12.2507 167.465 11.2174C167.558 11.0707 167.681 10.934 167.835 10.8074C167.988 10.674 168.161 10.6074 168.355 10.6074H169.855ZM177.645 15.2274V12.2174H176.305C175.992 12.2174 175.732 12.264 175.525 12.3574C175.318 12.444 175.148 12.5607 175.015 12.7074C174.888 12.8474 174.798 13.0074 174.745 13.1874C174.692 13.3674 174.665 13.544 174.665 13.7174C174.665 14.1907 174.822 14.5607 175.135 14.8274C175.455 15.094 175.882 15.2274 176.415 15.2274H177.645ZM179.995 10.6074V20.8674H177.645V16.7474H177.215C177.015 16.7474 176.848 16.7674 176.715 16.8074C176.588 16.8407 176.478 16.8907 176.385 16.9574C176.298 17.0174 176.222 17.094 176.155 17.1874C176.095 17.2807 176.032 17.384 175.965 17.4974L174.325 20.0174C174.245 20.1574 174.158 20.2807 174.065 20.3874C173.978 20.494 173.875 20.584 173.755 20.6574C173.642 20.724 173.505 20.7774 173.345 20.8174C173.192 20.8507 173.005 20.8674 172.785 20.8674H171.075L173.665 17.2474C173.805 16.994 173.968 16.7907 174.155 16.6374C174.342 16.484 174.562 16.3607 174.815 16.2674C174.335 16.1807 173.925 16.0474 173.585 15.8674C173.252 15.6807 172.982 15.4674 172.775 15.2274C172.568 14.9807 172.418 14.7174 172.325 14.4374C172.232 14.1574 172.185 13.8807 172.185 13.6074C172.185 13.2274 172.258 12.8574 172.405 12.4974C172.558 12.1374 172.798 11.8174 173.125 11.5374C173.452 11.2574 173.872 11.034 174.385 10.8674C174.898 10.694 175.515 10.6074 176.235 10.6074H179.995ZM193.444 11.2574C193.564 11.064 193.728 10.9074 193.934 10.7874C194.141 10.6674 194.361 10.6074 194.594 10.6074H196.534L194.144 14.4174C193.978 14.684 193.808 14.9007 193.634 15.0674C193.461 15.2274 193.251 15.354 193.004 15.4474C193.338 15.5474 193.611 15.6974 193.824 15.8974C194.038 16.0907 194.231 16.3374 194.404 16.6374L196.804 20.8674H195.094C194.661 20.8674 194.324 20.794 194.084 20.6474C193.844 20.5007 193.641 20.2907 193.474 20.0174L191.964 17.1774C191.831 16.9307 191.658 16.7474 191.444 16.6274C191.238 16.5074 190.994 16.4474 190.714 16.4474H189.784V20.8674H187.314V10.6074H189.784V14.8374H190.584C190.864 14.8374 191.088 14.7874 191.254 14.6874C191.428 14.5807 191.574 14.4207 191.694 14.2074L193.444 11.2574ZM202.343 10.4474C203.103 10.4474 203.793 10.5707 204.413 10.8174C205.039 11.064 205.573 11.414 206.013 11.8674C206.459 12.3207 206.803 12.874 207.043 13.5274C207.283 14.1807 207.403 14.9107 207.403 15.7174C207.403 16.5307 207.283 17.264 207.043 17.9174C206.803 18.5707 206.459 19.1274 206.013 19.5874C205.573 20.0474 205.039 20.4007 204.413 20.6474C203.793 20.894 203.103 21.0174 202.343 21.0174C201.576 21.0174 200.879 20.894 200.253 20.6474C199.626 20.4007 199.089 20.0474 198.643 19.5874C198.203 19.1274 197.859 18.5707 197.613 17.9174C197.373 17.264 197.253 16.5307 197.253 15.7174C197.253 14.9107 197.373 14.1807 197.613 13.5274C197.859 12.874 198.203 12.3207 198.643 11.8674C199.089 11.414 199.626 11.064 200.253 10.8174C200.879 10.5707 201.576 10.4474 202.343 10.4474ZM202.343 19.1174C203.196 19.1174 203.826 18.8307 204.233 18.2574C204.646 17.684 204.853 16.844 204.853 15.7374C204.853 14.6307 204.646 13.7874 204.233 13.2074C203.826 12.6274 203.196 12.3374 202.343 12.3374C201.476 12.3374 200.833 12.6307 200.413 13.2174C199.999 13.7974 199.793 14.6374 199.793 15.7374C199.793 16.8374 199.999 17.6774 200.413 18.2574C200.833 18.8307 201.476 19.1174 202.343 19.1174ZM216.637 12.7774C216.564 12.8707 216.49 12.944 216.417 12.9974C216.35 13.0507 216.25 13.0774 216.117 13.0774C215.99 13.0774 215.867 13.0407 215.747 12.9674C215.627 12.8874 215.484 12.8007 215.317 12.7074C215.15 12.6074 214.95 12.5207 214.717 12.4474C214.49 12.3674 214.207 12.3274 213.867 12.3274C213.434 12.3274 213.054 12.4074 212.727 12.5674C212.4 12.7207 212.127 12.944 211.907 13.2374C211.694 13.5307 211.534 13.8874 211.427 14.3074C211.32 14.7207 211.267 15.1907 211.267 15.7174C211.267 16.264 211.324 16.7507 211.437 17.1774C211.557 17.604 211.727 17.964 211.947 18.2574C212.167 18.544 212.434 18.764 212.747 18.9174C213.06 19.064 213.414 19.1374 213.807 19.1374C214.2 19.1374 214.517 19.0907 214.757 18.9974C215.004 18.8974 215.21 18.7907 215.377 18.6774C215.544 18.5574 215.687 18.4507 215.807 18.3574C215.934 18.2574 216.074 18.2074 216.227 18.2074C216.427 18.2074 216.577 18.284 216.677 18.4374L217.387 19.3374C217.114 19.6574 216.817 19.9274 216.497 20.1474C216.177 20.3607 215.844 20.534 215.497 20.6674C215.157 20.794 214.804 20.884 214.437 20.9374C214.077 20.9907 213.717 21.0174 213.357 21.0174C212.724 21.0174 212.127 20.9007 211.567 20.6674C211.007 20.4274 210.517 20.0807 210.097 19.6274C209.677 19.174 209.344 18.6207 209.097 17.9674C208.857 17.3074 208.737 16.5574 208.737 15.7174C208.737 14.964 208.844 14.2674 209.057 13.6274C209.277 12.9807 209.597 12.424 210.017 11.9574C210.437 11.484 210.957 11.114 211.577 10.8474C212.197 10.5807 212.91 10.4474 213.717 10.4474C214.484 10.4474 215.154 10.5707 215.727 10.8174C216.307 11.064 216.827 11.4174 217.287 11.8774L216.637 12.7774ZM230.826 10.5874V20.8674H228.596V15.1474C228.596 14.914 228.606 14.6507 228.626 14.3574C228.652 14.064 228.692 13.7907 228.746 13.5374L225.726 19.0774C225.579 19.364 225.346 19.5074 225.026 19.5074H224.766C224.446 19.5074 224.212 19.364 224.066 19.0774L221.006 13.5074C221.052 13.7607 221.089 14.0374 221.116 14.3374C221.149 14.6374 221.166 14.9074 221.166 15.1474V20.8674H218.936V10.5874H220.976C221.149 10.5874 221.319 10.624 221.486 10.6974C221.659 10.7707 221.802 10.9174 221.916 11.1374L224.336 15.4574C224.442 15.6574 224.542 15.8707 224.636 16.0974C224.729 16.3174 224.816 16.5407 224.896 16.7674C224.976 16.5407 225.059 16.314 225.146 16.0874C225.239 15.8607 225.339 15.6507 225.446 15.4574L227.846 11.1374C227.966 10.9107 228.109 10.764 228.276 10.6974C228.442 10.624 228.612 10.5874 228.786 10.5874H230.826ZM242.492 10.6074V20.8674H240.022V14.8774C240.022 14.724 240.028 14.5574 240.042 14.3774C240.062 14.1907 240.085 14.004 240.112 13.8174C239.978 14.124 239.832 14.394 239.672 14.6274C239.658 14.6407 239.592 14.734 239.472 14.9074C239.352 15.074 239.195 15.2907 239.002 15.5574C238.815 15.824 238.602 16.1274 238.362 16.4674C238.122 16.8007 237.878 17.1407 237.632 17.4874C237.052 18.3074 236.395 19.234 235.662 20.2674C235.568 20.4074 235.445 20.544 235.292 20.6774C235.145 20.8107 234.975 20.8774 234.782 20.8774H233.272V10.6174H235.742V16.6074C235.742 16.7607 235.732 16.9307 235.712 17.1174C235.698 17.2974 235.678 17.4807 235.652 17.6674C235.798 17.3407 235.945 17.0707 236.092 16.8574C236.098 16.844 236.162 16.754 236.282 16.5874C236.402 16.4207 236.555 16.204 236.742 15.9374C236.935 15.6707 237.152 15.3707 237.392 15.0374C237.632 14.6974 237.875 14.3507 238.122 13.9974C238.702 13.1774 239.362 12.2507 240.102 11.2174C240.195 11.0707 240.318 10.934 240.472 10.8074C240.625 10.674 240.798 10.6074 240.992 10.6074H242.492ZM253.032 10.6074V20.8674H250.562V16.8374C249.682 17.0507 248.865 17.174 248.112 17.2074C247.358 17.234 246.705 17.144 246.152 16.9374C245.605 16.724 245.175 16.3807 244.862 15.9074C244.555 15.434 244.402 14.804 244.402 14.0174V10.6074H246.872V13.6374C246.872 14.0574 246.938 14.3974 247.072 14.6574C247.212 14.9107 247.428 15.094 247.722 15.2074C248.022 15.3207 248.405 15.3674 248.872 15.3474C249.338 15.3274 249.902 15.2507 250.562 15.1174V10.6074H253.032ZM262.089 14.5574C262.089 14.2374 262.042 13.9374 261.949 13.6574C261.862 13.3707 261.729 13.1207 261.549 12.9074C261.369 12.694 261.139 12.5274 260.859 12.4074C260.585 12.2807 260.265 12.2174 259.899 12.2174C259.185 12.2174 258.622 12.4207 258.209 12.8274C257.802 13.234 257.542 13.8107 257.429 14.5574H262.089ZM257.379 16.0474C257.419 16.574 257.512 17.0307 257.659 17.4174C257.805 17.7974 257.999 18.114 258.239 18.3674C258.479 18.614 258.762 18.8007 259.089 18.9274C259.422 19.0474 259.789 19.1074 260.189 19.1074C260.589 19.1074 260.932 19.0607 261.219 18.9674C261.512 18.874 261.765 18.7707 261.979 18.6574C262.199 18.544 262.389 18.4407 262.549 18.3474C262.715 18.254 262.875 18.2074 263.029 18.2074C263.235 18.2074 263.389 18.284 263.489 18.4374L264.199 19.3374C263.925 19.6574 263.619 19.9274 263.279 20.1474C262.939 20.3607 262.582 20.534 262.209 20.6674C261.842 20.794 261.465 20.884 261.079 20.9374C260.699 20.9907 260.329 21.0174 259.969 21.0174C259.255 21.0174 258.592 20.9007 257.979 20.6674C257.365 20.4274 256.832 20.0774 256.379 19.6174C255.925 19.1507 255.569 18.5774 255.309 17.8974C255.049 17.2107 254.919 16.4174 254.919 15.5174C254.919 14.8174 255.032 14.1607 255.259 13.5474C255.485 12.9274 255.809 12.3907 256.229 11.9374C256.655 11.4774 257.172 11.114 257.779 10.8474C258.392 10.5807 259.082 10.4474 259.849 10.4474C260.495 10.4474 261.092 10.5507 261.639 10.7574C262.185 10.964 262.655 11.2674 263.049 11.6674C263.442 12.0607 263.749 12.5474 263.969 13.1274C264.195 13.7007 264.309 14.3574 264.309 15.0974C264.309 15.4707 264.269 15.724 264.189 15.8574C264.109 15.984 263.955 16.0474 263.729 16.0474H257.379ZM273.512 12.7774C273.439 12.8707 273.365 12.944 273.292 12.9974C273.225 13.0507 273.125 13.0774 272.992 13.0774C272.865 13.0774 272.742 13.0407 272.622 12.9674C272.502 12.8874 272.359 12.8007 272.192 12.7074C272.025 12.6074 271.825 12.5207 271.592 12.4474C271.365 12.3674 271.082 12.3274 270.742 12.3274C270.309 12.3274 269.929 12.4074 269.602 12.5674C269.275 12.7207 269.002 12.944 268.782 13.2374C268.569 13.5307 268.409 13.8874 268.302 14.3074C268.195 14.7207 268.142 15.1907 268.142 15.7174C268.142 16.264 268.199 16.7507 268.312 17.1774C268.432 17.604 268.602 17.964 268.822 18.2574C269.042 18.544 269.309 18.764 269.622 18.9174C269.935 19.064 270.289 19.1374 270.682 19.1374C271.075 19.1374 271.392 19.0907 271.632 18.9974C271.879 18.8974 272.085 18.7907 272.252 18.6774C272.419 18.5574 272.562 18.4507 272.682 18.3574C272.809 18.2574 272.949 18.2074 273.102 18.2074C273.302 18.2074 273.452 18.284 273.552 18.4374L274.262 19.3374C273.989 19.6574 273.692 19.9274 273.372 20.1474C273.052 20.3607 272.719 20.534 272.372 20.6674C272.032 20.794 271.679 20.884 271.312 20.9374C270.952 20.9907 270.592 21.0174 270.232 21.0174C269.599 21.0174 269.002 20.9007 268.442 20.6674C267.882 20.4274 267.392 20.0807 266.972 19.6274C266.552 19.174 266.219 18.6207 265.972 17.9674C265.732 17.3074 265.612 16.5574 265.612 15.7174C265.612 14.964 265.719 14.2674 265.932 13.6274C266.152 12.9807 266.472 12.424 266.892 11.9574C267.312 11.484 267.832 11.114 268.452 10.8474C269.072 10.5807 269.785 10.4474 270.592 10.4474C271.359 10.4474 272.029 10.5707 272.602 10.8174C273.182 11.064 273.702 11.4174 274.162 11.8774L273.512 12.7774ZM281.941 11.2574C282.061 11.064 282.224 10.9074 282.431 10.7874C282.637 10.6674 282.857 10.6074 283.091 10.6074H285.031L282.641 14.4174C282.474 14.684 282.304 14.9007 282.131 15.0674C281.957 15.2274 281.747 15.354 281.501 15.4474C281.834 15.5474 282.107 15.6974 282.321 15.8974C282.534 16.0907 282.727 16.3374 282.901 16.6374L285.301 20.8674H283.591C283.157 20.8674 282.821 20.794 282.581 20.6474C282.341 20.5007 282.137 20.2907 281.971 20.0174L280.461 17.1774C280.327 16.9307 280.154 16.7474 279.941 16.6274C279.734 16.5074 279.491 16.4474 279.211 16.4474H278.281V20.8674H275.811V10.6074H278.281V14.8374H279.081C279.361 14.8374 279.584 14.7874 279.751 14.6874C279.924 14.5807 280.071 14.4207 280.191 14.2074L281.941 11.2574ZM290.839 10.4474C291.599 10.4474 292.289 10.5707 292.909 10.8174C293.536 11.064 294.069 11.414 294.509 11.8674C294.956 12.3207 295.299 12.874 295.539 13.5274C295.779 14.1807 295.899 14.9107 295.899 15.7174C295.899 16.5307 295.779 17.264 295.539 17.9174C295.299 18.5707 294.956 19.1274 294.509 19.5874C294.069 20.0474 293.536 20.4007 292.909 20.6474C292.289 20.894 291.599 21.0174 290.839 21.0174C290.072 21.0174 289.376 20.894 288.749 20.6474C288.122 20.4007 287.586 20.0474 287.139 19.5874C286.699 19.1274 286.356 18.5707 286.109 17.9174C285.869 17.264 285.749 16.5307 285.749 15.7174C285.749 14.9107 285.869 14.1807 286.109 13.5274C286.356 12.874 286.699 12.3207 287.139 11.8674C287.586 11.414 288.122 11.064 288.749 10.8174C289.376 10.5707 290.072 10.4474 290.839 10.4474ZM290.839 19.1174C291.692 19.1174 292.322 18.8307 292.729 18.2574C293.142 17.684 293.349 16.844 293.349 15.7374C293.349 14.6307 293.142 13.7874 292.729 13.2074C292.322 12.6274 291.692 12.3374 290.839 12.3374C289.972 12.3374 289.329 12.6307 288.909 13.2174C288.496 13.7974 288.289 14.6374 288.289 15.7374C288.289 16.8374 288.496 17.6774 288.909 18.2574C289.329 18.8307 289.972 19.1174 290.839 19.1174ZM304.733 12.4374H300.253V20.8674H297.783V10.6074H304.733V12.4374ZM310.409 10.4474C311.169 10.4474 311.859 10.5707 312.479 10.8174C313.106 11.064 313.639 11.414 314.079 11.8674C314.526 12.3207 314.869 12.874 315.109 13.5274C315.349 14.1807 315.469 14.9107 315.469 15.7174C315.469 16.5307 315.349 17.264 315.109 17.9174C314.869 18.5707 314.526 19.1274 314.079 19.5874C313.639 20.0474 313.106 20.4007 312.479 20.6474C311.859 20.894 311.169 21.0174 310.409 21.0174C309.643 21.0174 308.946 20.894 308.319 20.6474C307.693 20.4007 307.156 20.0474 306.709 19.5874C306.269 19.1274 305.926 18.5707 305.679 17.9174C305.439 17.264 305.319 16.5307 305.319 15.7174C305.319 14.9107 305.439 14.1807 305.679 13.5274C305.926 12.874 306.269 12.3207 306.709 11.8674C307.156 11.414 307.693 11.064 308.319 10.8174C308.946 10.5707 309.643 10.4474 310.409 10.4474ZM310.409 19.1174C311.263 19.1174 311.893 18.8307 312.299 18.2574C312.713 17.684 312.919 16.844 312.919 15.7374C312.919 14.6307 312.713 13.7874 312.299 13.2074C311.893 12.6274 311.263 12.3374 310.409 12.3374C309.543 12.3374 308.899 12.6307 308.479 13.2174C308.066 13.7974 307.859 14.6374 307.859 15.7374C307.859 16.8374 308.066 17.6774 308.479 18.2574C308.899 18.8307 309.543 19.1174 310.409 19.1174ZM70.3178 34.5874V44.8674H68.0878V39.1474C68.0878 38.914 68.0978 38.6507 68.1178 38.3574C68.1444 38.064 68.1844 37.7907 68.2378 37.5374L65.2178 43.0774C65.0711 43.364 64.8378 43.5074 64.5178 43.5074H64.2578C63.9378 43.5074 63.7044 43.364 63.5578 43.0774L60.4978 37.5074C60.5444 37.7607 60.5811 38.0374 60.6078 38.3374C60.6411 38.6374 60.6578 38.9074 60.6578 39.1474V44.8674H58.4278V34.5874H60.4678C60.6411 34.5874 60.8111 34.624 60.9778 34.6974C61.1511 34.7707 61.2944 34.9174 61.4078 35.1374L63.8278 39.4574C63.9344 39.6574 64.0344 39.8707 64.1278 40.0974C64.2211 40.3174 64.3078 40.5407 64.3878 40.7674C64.4678 40.5407 64.5511 40.314 64.6378 40.0874C64.7311 39.8607 64.8311 39.6507 64.9378 39.4574L67.3378 35.1374C67.4578 34.9107 67.6011 34.764 67.7678 34.6974C67.9344 34.624 68.1044 34.5874 68.2778 34.5874H70.3178ZM77.3037 34.4474C78.0637 34.4474 78.7537 34.5707 79.3737 34.8174C80.0004 35.064 80.5337 35.414 80.9737 35.8674C81.4204 36.3207 81.7637 36.874 82.0037 37.5274C82.2437 38.1807 82.3637 38.9107 82.3637 39.7174C82.3637 40.5307 82.2437 41.264 82.0037 41.9174C81.7637 42.5707 81.4204 43.1274 80.9737 43.5874C80.5337 44.0474 80.0004 44.4007 79.3737 44.6474C78.7537 44.894 78.0637 45.0174 77.3037 45.0174C76.537 45.0174 75.8404 44.894 75.2137 44.6474C74.587 44.4007 74.0504 44.0474 73.6037 43.5874C73.1637 43.1274 72.8204 42.5707 72.5737 41.9174C72.3337 41.264 72.2137 40.5307 72.2137 39.7174C72.2137 38.9107 72.3337 38.1807 72.5737 37.5274C72.8204 36.874 73.1637 36.3207 73.6037 35.8674C74.0504 35.414 74.587 35.064 75.2137 34.8174C75.8404 34.5707 76.537 34.4474 77.3037 34.4474ZM77.3037 43.1174C78.157 43.1174 78.787 42.8307 79.1937 42.2574C79.607 41.684 79.8137 40.844 79.8137 39.7374C79.8137 38.6307 79.607 37.7874 79.1937 37.2074C78.787 36.6274 78.157 36.3374 77.3037 36.3374C76.437 36.3374 75.7937 36.6307 75.3737 37.2174C74.9604 37.7974 74.7537 38.6374 74.7537 39.7374C74.7537 40.8374 74.9604 41.6774 75.3737 42.2574C75.7937 42.8307 76.437 43.1174 77.3037 43.1174ZM93.1881 34.6074V44.8674H90.7181V40.3274H86.7181V44.8674H84.2481V34.6074H86.7181V38.4974H90.7181V34.6074H93.1881ZM104.855 34.6074V44.8674H102.385V38.8774C102.385 38.724 102.391 38.5574 102.405 38.3774C102.425 38.1907 102.448 38.004 102.475 37.8174C102.341 38.124 102.195 38.394 102.035 38.6274C102.021 38.6407 101.955 38.734 101.835 38.9074C101.715 39.074 101.558 39.2907 101.365 39.5574C101.178 39.824 100.965 40.1274 100.725 40.4674C100.485 40.8007 100.241 41.1407 99.9948 41.4874C99.4148 42.3074 98.7581 43.234 98.0248 44.2674C97.9315 44.4074 97.8081 44.544 97.6548 44.6774C97.5081 44.8107 97.3381 44.8774 97.1448 44.8774H95.6348V34.6174H98.1048V40.6074C98.1048 40.7607 98.0948 40.9307 98.0748 41.1174C98.0615 41.2974 98.0415 41.4807 98.0148 41.6674C98.1615 41.3407 98.3081 41.0707 98.4548 40.8574C98.4615 40.844 98.5248 40.754 98.6448 40.5874C98.7648 40.4207 98.9181 40.204 99.1048 39.9374C99.2981 39.6707 99.5148 39.3707 99.7548 39.0374C99.9948 38.6974 100.238 38.3507 100.485 37.9974C101.065 37.1774 101.725 36.2507 102.465 35.2174C102.558 35.0707 102.681 34.934 102.835 34.8074C102.988 34.674 103.161 34.6074 103.355 34.6074H104.855ZM116.095 36.4374H112.435V44.8674H109.965V36.4374H106.315V34.6074H116.095V36.4374ZM121.796 34.4474C122.556 34.4474 123.246 34.5707 123.866 34.8174C124.493 35.064 125.026 35.414 125.466 35.8674C125.913 36.3207 126.256 36.874 126.496 37.5274C126.736 38.1807 126.856 38.9107 126.856 39.7174C126.856 40.5307 126.736 41.264 126.496 41.9174C126.256 42.5707 125.913 43.1274 125.466 43.5874C125.026 44.0474 124.493 44.4007 123.866 44.6474C123.246 44.894 122.556 45.0174 121.796 45.0174C121.029 45.0174 120.333 44.894 119.706 44.6474C119.079 44.4007 118.543 44.0474 118.096 43.5874C117.656 43.1274 117.313 42.5707 117.066 41.9174C116.826 41.264 116.706 40.5307 116.706 39.7174C116.706 38.9107 116.826 38.1807 117.066 37.5274C117.313 36.874 117.656 36.3207 118.096 35.8674C118.543 35.414 119.079 35.064 119.706 34.8174C120.333 34.5707 121.029 34.4474 121.796 34.4474ZM121.796 43.1174C122.649 43.1174 123.279 42.8307 123.686 42.2574C124.099 41.684 124.306 40.844 124.306 39.7374C124.306 38.6307 124.099 37.7874 123.686 37.2074C123.279 36.6274 122.649 36.3374 121.796 36.3374C120.929 36.3374 120.286 36.6307 119.866 37.2174C119.453 37.7974 119.246 38.6374 119.246 39.7374C119.246 40.8374 119.453 41.6774 119.866 42.2574C120.286 42.8307 120.929 43.1174 121.796 43.1174ZM131.21 42.2074C131.49 42.5474 131.794 42.7874 132.12 42.9274C132.454 43.0674 132.814 43.1374 133.2 43.1374C133.574 43.1374 133.91 43.0674 134.21 42.9274C134.51 42.7874 134.764 42.574 134.97 42.2874C135.184 42.0007 135.347 41.6407 135.46 41.2074C135.574 40.7674 135.63 40.2507 135.63 39.6574C135.63 39.0574 135.58 38.5507 135.48 38.1374C135.387 37.7174 135.25 37.3774 135.07 37.1174C134.89 36.8574 134.67 36.6674 134.41 36.5474C134.157 36.4274 133.867 36.3674 133.54 36.3674C133.027 36.3674 132.59 36.4774 132.23 36.6974C131.87 36.9107 131.53 37.214 131.21 37.6074V42.2074ZM131.08 36.0074C131.5 35.534 131.977 35.1507 132.51 34.8574C133.044 34.564 133.67 34.4174 134.39 34.4174C134.95 34.4174 135.46 34.534 135.92 34.7674C136.387 35.0007 136.787 35.3407 137.12 35.7874C137.46 36.2274 137.72 36.774 137.9 37.4274C138.087 38.074 138.18 38.8174 138.18 39.6574C138.18 40.424 138.077 41.134 137.87 41.7874C137.664 42.4407 137.367 43.0074 136.98 43.4874C136.6 43.9674 136.137 44.344 135.59 44.6174C135.05 44.884 134.444 45.0174 133.77 45.0174C133.197 45.0174 132.707 44.9307 132.3 44.7574C131.894 44.5774 131.53 44.3307 131.21 44.0174V48.2174H128.74V34.6074H130.25C130.57 34.6074 130.78 34.7574 130.88 35.0574L131.08 36.0074ZM149.308 34.6074V44.8674H146.838V38.8774C146.838 38.724 146.845 38.5574 146.858 38.3774C146.878 38.1907 146.901 38.004 146.928 37.8174C146.795 38.124 146.648 38.394 146.488 38.6274C146.475 38.6407 146.408 38.734 146.288 38.9074C146.168 39.074 146.011 39.2907 145.818 39.5574C145.631 39.824 145.418 40.1274 145.178 40.4674C144.938 40.8007 144.695 41.1407 144.448 41.4874C143.868 42.3074 143.211 43.234 142.478 44.2674C142.385 44.4074 142.261 44.544 142.108 44.6774C141.961 44.8107 141.791 44.8774 141.598 44.8774H140.088V34.6174H142.558V40.6074C142.558 40.7607 142.548 40.9307 142.528 41.1174C142.515 41.2974 142.495 41.4807 142.468 41.6674C142.615 41.3407 142.761 41.0707 142.908 40.8574C142.915 40.844 142.978 40.754 143.098 40.5874C143.218 40.4207 143.371 40.204 143.558 39.9374C143.751 39.6707 143.968 39.3707 144.208 39.0374C144.448 38.6974 144.691 38.3507 144.938 37.9974C145.518 37.1774 146.178 36.2507 146.918 35.2174C147.011 35.0707 147.135 34.934 147.288 34.8074C147.441 34.674 147.615 34.6074 147.808 34.6074H149.308ZM160.688 34.6074V44.8674H158.218V40.3274H154.218V44.8674H151.748V34.6074H154.218V38.4974H158.218V34.6074H160.688ZM170.085 36.4374H165.605V44.8674H163.135V34.6074H170.085V36.4374ZM176.914 40.4874C176.201 40.5207 175.601 40.584 175.114 40.6774C174.628 40.764 174.238 40.8774 173.944 41.0174C173.651 41.1574 173.441 41.3207 173.314 41.5074C173.188 41.694 173.124 41.8974 173.124 42.1174C173.124 42.5507 173.251 42.8607 173.504 43.0474C173.764 43.234 174.101 43.3274 174.514 43.3274C175.021 43.3274 175.458 43.2374 175.824 43.0574C176.198 42.8707 176.561 42.5907 176.914 42.2174V40.4874ZM171.254 36.0374C172.434 34.9574 173.854 34.4174 175.514 34.4174C176.114 34.4174 176.651 34.5174 177.124 34.7174C177.598 34.9107 177.998 35.184 178.324 35.5374C178.651 35.884 178.898 36.3007 179.064 36.7874C179.238 37.274 179.324 37.8074 179.324 38.3874V44.8674H178.204C177.971 44.8674 177.791 44.834 177.664 44.7674C177.538 44.694 177.438 44.5507 177.364 44.3374L177.144 43.5974C176.884 43.8307 176.631 44.0374 176.384 44.2174C176.138 44.3907 175.881 44.5374 175.614 44.6574C175.348 44.7774 175.061 44.8674 174.754 44.9274C174.454 44.994 174.121 45.0274 173.754 45.0274C173.321 45.0274 172.921 44.9707 172.554 44.8574C172.188 44.7374 171.871 44.5607 171.604 44.3274C171.338 44.094 171.131 43.804 170.984 43.4574C170.838 43.1107 170.764 42.7074 170.764 42.2474C170.764 41.9874 170.808 41.7307 170.894 41.4774C170.981 41.2174 171.121 40.9707 171.314 40.7374C171.514 40.504 171.771 40.284 172.084 40.0774C172.398 39.8707 172.781 39.6907 173.234 39.5374C173.694 39.384 174.228 39.2607 174.834 39.1674C175.441 39.0674 176.134 39.0074 176.914 38.9874V38.3874C176.914 37.7007 176.768 37.194 176.474 36.8674C176.181 36.534 175.758 36.3674 175.204 36.3674C174.804 36.3674 174.471 36.414 174.204 36.5074C173.944 36.6007 173.714 36.7074 173.514 36.8274C173.314 36.9407 173.131 37.044 172.964 37.1374C172.804 37.2307 172.624 37.2774 172.424 37.2774C172.251 37.2774 172.104 37.234 171.984 37.1474C171.864 37.054 171.768 36.9474 171.694 36.8274L171.254 36.0374ZM197.204 30.4074V44.8674H194.494V39.0774C193.714 39.2707 192.964 39.414 192.244 39.5074C191.53 39.6007 190.86 39.6307 190.234 39.5974C189.614 39.564 189.047 39.4607 188.534 39.2874C188.02 39.1074 187.58 38.8407 187.214 38.4874C186.854 38.134 186.574 37.6874 186.374 37.1474C186.174 36.6007 186.074 35.944 186.074 35.1774V30.4074H188.784V35.1774C188.784 35.7374 188.88 36.204 189.074 36.5774C189.267 36.944 189.584 37.214 190.024 37.3874C190.47 37.5607 191.057 37.6307 191.784 37.5974C192.517 37.564 193.42 37.4174 194.494 37.1574V30.4074H197.204ZM210.349 41.4574C210.496 41.4574 210.626 41.514 210.739 41.6274L211.799 42.7774C211.213 43.504 210.489 44.0607 209.629 44.4474C208.776 44.834 207.749 45.0274 206.549 45.0274C205.476 45.0274 204.509 44.844 203.649 44.4774C202.796 44.1107 202.066 43.6007 201.459 42.9474C200.853 42.294 200.386 41.514 200.059 40.6074C199.739 39.7007 199.579 38.7107 199.579 37.6374C199.579 36.5507 199.753 35.5574 200.099 34.6574C200.446 33.7507 200.933 32.9707 201.559 32.3174C202.193 31.664 202.946 31.1574 203.819 30.7974C204.693 30.4307 205.659 30.2474 206.719 30.2474C207.773 30.2474 208.706 30.4207 209.519 30.7674C210.339 31.114 211.036 31.5674 211.609 32.1274L210.709 33.3774C210.656 33.4574 210.586 33.5274 210.499 33.5874C210.419 33.6474 210.306 33.6774 210.159 33.6774C210.059 33.6774 209.956 33.6507 209.849 33.5974C209.743 33.5374 209.626 33.4674 209.499 33.3874C209.373 33.3007 209.226 33.2074 209.059 33.1074C208.893 33.0074 208.699 32.9174 208.479 32.8374C208.259 32.7507 208.003 32.6807 207.709 32.6274C207.423 32.5674 207.089 32.5374 206.709 32.5374C206.063 32.5374 205.469 32.654 204.929 32.8874C204.396 33.114 203.936 33.4474 203.549 33.8874C203.163 34.3207 202.863 34.854 202.649 35.4874C202.436 36.114 202.329 36.8307 202.329 37.6374C202.329 38.4507 202.443 39.174 202.669 39.8074C202.903 40.4407 203.216 40.974 203.609 41.4074C204.003 41.8407 204.466 42.174 204.999 42.4074C205.533 42.634 206.106 42.7474 206.719 42.7474C207.086 42.7474 207.416 42.7274 207.709 42.6874C208.009 42.6474 208.283 42.584 208.529 42.4974C208.783 42.4107 209.019 42.3007 209.239 42.1674C209.466 42.0274 209.689 41.8574 209.909 41.6574C209.976 41.5974 210.046 41.5507 210.119 41.5174C210.193 41.4774 210.269 41.4574 210.349 41.4574Z" fill="black"/>
<path d="M15.2176 25.6754C15.2176 26.9419 15.4734 28.1412 15.9848 29.2733C16.4963 30.4063 17.227 31.3991 18.1769 32.2515C18.1525 32.1297 18.1403 32.0201 18.1403 31.9227V31.5939C18.1403 30.8145 18.2865 30.0838 18.5788 29.4019C18.871 28.7199 19.2973 28.0988 19.8574 27.5386L23.9858 23.4833L28.1142 27.5386C28.6743 28.0988 29.1006 28.7199 29.3928 29.4019C29.6851 30.0838 29.8313 30.8145 29.8313 31.5939V31.9227C29.8313 32.0201 29.8191 32.1297 29.7947 32.2515C30.7446 31.3991 31.4753 30.4063 31.9868 29.2733C32.4983 28.1412 32.754 26.9419 32.754 25.6754C32.754 24.4576 32.5289 23.3065 32.0788 22.2222C31.6278 21.1388 30.976 20.1709 30.1235 19.3184C29.6364 19.6351 29.1249 19.8723 28.5891 20.0301C28.0533 20.1889 27.5053 20.2683 26.9451 20.2683C25.435 20.2683 24.1261 19.769 23.0184 18.7704C21.9097 17.7718 21.2701 16.5419 21.0996 15.0805C20.1497 15.8842 19.3094 16.7182 18.5788 17.5823C17.8481 18.4475 17.2333 19.3243 16.7345 20.2128C16.2347 21.1023 15.8572 22.0098 15.602 22.9353C15.3457 23.8609 15.2176 24.7742 15.2176 25.6754ZM23.9551 27.9592L21.8726 30.0051C21.6047 30.273 21.3977 30.5775 21.2516 30.9185C21.1054 31.2594 21.0323 31.6126 21.0323 31.9779C21.0323 32.7573 21.3188 33.4271 21.8916 33.9873C22.4635 34.5475 23.1513 34.8276 23.9551 34.8276C24.7588 34.8276 25.4471 34.5475 26.02 33.9873C26.5919 33.4271 26.8778 32.7573 26.8778 31.9779C26.8778 31.5882 26.8047 31.2288 26.6586 30.8995C26.5125 30.5711 26.3054 30.273 26.0375 30.0051L23.9551 27.9592ZM23.9551 9.98441V14.8069C23.9551 15.635 24.2415 16.3292 24.8144 16.8894C25.3862 17.4495 26.0862 17.7296 26.9143 17.7296C27.3528 17.7296 27.761 17.6385 28.139 17.4564C28.516 17.2732 28.8506 16.999 29.1429 16.6336L29.8005 15.8299C31.6029 16.8528 33.0277 18.2777 34.075 20.1044C35.1223 21.9311 35.646 23.9161 35.646 26.0594C35.646 29.3231 34.5134 32.0875 32.2483 34.3527C29.9832 36.6178 27.2188 37.7503 23.9551 37.7503C20.6914 37.7503 17.9269 36.6178 15.6618 34.3527C13.3967 32.0875 12.2642 29.3231 12.2642 26.0594C12.2642 22.9175 13.3178 19.9339 15.4251 17.1086C17.5314 14.2833 20.3747 11.9085 23.9551 9.98441Z" fill="white"/>
<path d="M15.2176 25.6754C15.2176 26.9419 15.4734 28.1412 15.9848 29.2733C16.4963 30.4063 17.227 31.3991 18.1769 32.2515C18.1525 32.1297 18.1403 32.0201 18.1403 31.9227V31.5939C18.1403 30.8145 18.2865 30.0838 18.5788 29.4019C18.871 28.7199 19.2973 28.0988 19.8574 27.5386L23.9858 23.4833L28.1142 27.5386C28.6743 28.0988 29.1006 28.7199 29.3928 29.4019C29.6851 30.0838 29.8313 30.8145 29.8313 31.5939V31.9227C29.8313 32.0201 29.8191 32.1297 29.7947 32.2515C30.7446 31.3991 31.4753 30.4063 31.9868 29.2733C32.4983 28.1412 32.754 26.9419 32.754 25.6754C32.754 24.4576 32.5289 23.3065 32.0788 22.2222C31.6278 21.1388 30.976 20.1709 30.1235 19.3184C29.6364 19.6351 29.1249 19.8723 28.5891 20.0301C28.0533 20.1889 27.5053 20.2683 26.9451 20.2683C25.435 20.2683 24.1261 19.769 23.0184 18.7704C21.9097 17.7718 21.2701 16.5419 21.0996 15.0805L18.5788 17.5823C17.8481 18.4475 17.2333 19.3243 16.7345 20.2128C16.2347 21.1023 15.8572 22.0098 15.602 22.9353C15.3457 23.8609 15.2176 24.7742 15.2176 25.6754Z" fill="white"/>
<path d="M23.9551 27.9592L21.8726 30.0051C21.6047 30.273 21.3977 30.5775 21.2516 30.9185C21.1054 31.2594 21.0323 31.6126 21.0323 31.9779C21.0323 32.7573 21.3188 33.4271 21.8916 33.9873C22.4635 34.5475 23.1513 34.8276 23.9551 34.8276C24.7588 34.8276 25.4471 34.5475 26.02 33.9873C26.5919 33.4271 26.8778 32.7573 26.8778 31.9779C26.8778 31.5882 26.8047 31.2288 26.6586 30.8995C26.5125 30.5711 26.3054 30.273 26.0375 30.0051L23.9551 27.9592Z" fill="white"/>
<path d="M36.9659 36.8781C35.2573 38.5867 33.2289 39.9421 30.9965 40.8667C28.7642 41.7914 26.3715 42.2674 23.9552 42.2674C21.5388 42.2674 19.1462 41.7914 16.9138 40.8667C14.6814 39.9421 12.653 38.5867 10.9444 36.8781C9.23581 35.1695 7.88048 33.1411 6.95579 30.9087C6.03111 28.6763 5.55518 26.2837 5.55518 23.8674C5.55518 21.451 6.03111 19.0584 6.95579 16.826C7.88048 14.5936 9.23581 12.5652 10.9444 10.8566C14.0421 11.801 15.3312 12.7763 16.1182 16.0304C17.8066 20.837 19.8808 22.0961 23.9552 23.8674C29.0835 26.4546 30.8061 28.714 33.2635 33.1757C33.8719 34.8572 34.8228 35.6278 36.9659 36.8781Z" fill="white"/>
<path d="M15.1869 26.0594C15.1869 27.3259 15.4426 28.5252 15.9541 29.6573C16.4656 30.7903 17.1963 31.7831 18.1462 32.6356C18.1218 32.5138 18.1096 32.4042 18.1096 32.3068V31.9779C18.1096 31.1986 18.2558 30.4679 18.548 29.7859C18.8403 29.1039 19.2665 28.4828 19.8267 27.9227L23.9551 23.8674L28.0834 27.9227C28.6436 28.4828 29.0699 29.1039 29.3621 29.7859C29.6544 30.4679 29.8005 31.1986 29.8005 31.9779V32.3068C29.8005 32.4042 29.7884 32.5138 29.764 32.6356C30.7139 31.7831 31.4446 30.7903 31.956 29.6573C32.4675 28.5252 32.7233 27.3259 32.7233 26.0594C32.7233 24.8416 32.4982 23.6905 32.0481 22.6062C31.597 21.5229 30.9453 20.5549 30.0928 19.7025C29.6057 20.0191 29.0942 20.2563 28.5584 20.4142C28.0225 20.573 27.4745 20.6524 26.9143 20.6524C25.4043 20.6524 24.0954 20.1531 22.9877 19.1545C21.879 18.1559 21.2394 16.9259 21.0689 15.4645C20.119 16.2683 19.2787 17.1022 18.548 17.9664C17.8173 18.8315 17.2026 19.7083 16.7038 20.5968C16.204 21.4863 15.8265 22.3938 15.5712 23.3194C15.315 24.2449 15.1869 25.1582 15.1869 26.0594ZM23.9551 27.9592L21.8726 30.0051C21.6047 30.273 21.3977 30.5775 21.2516 30.9185C21.1054 31.2594 21.0323 31.6126 21.0323 31.9779C21.0323 32.7573 21.3188 33.4271 21.8916 33.9873C22.4635 34.5475 23.1513 34.8276 23.9551 34.8276C24.7588 34.8276 25.4471 34.5475 26.02 33.9873C26.5919 33.4271 26.8778 32.7573 26.8778 31.9779C26.8778 31.5882 26.8047 31.2288 26.6586 30.8995C26.5125 30.5711 26.3054 30.273 26.0375 30.0051L23.9551 27.9592ZM23.9551 9.98441V14.8069C23.9551 15.635 24.2415 16.3292 24.8144 16.8894C25.3862 17.4495 26.0862 17.7296 26.9143 17.7296C27.3528 17.7296 27.761 17.6385 28.139 17.4564C28.516 17.2732 28.8506 16.999 29.1429 16.6336L29.8005 15.8299C31.6029 16.8528 33.0277 18.2777 34.075 20.1044C35.1223 21.9311 35.646 23.9161 35.646 26.0594C35.646 29.3231 34.5134 32.0875 32.2483 34.3527C29.9832 36.6178 27.2188 37.7503 23.9551 37.7503C20.6914 37.7503 17.9269 36.6178 15.6618 34.3527C13.3967 32.0875 12.2642 29.3231 12.2642 26.0594C12.2642 22.9175 13.3178 19.9339 15.4251 17.1086C17.5314 14.2833 20.3747 11.9085 23.9551 9.98441Z" fill="#FF0700"/>
<path d="M44.0801 23.8674C45.6679 23.8674 46.9736 25.1595 46.7756 26.7349C46.3317 30.2678 45.0716 33.6632 43.0789 36.6455C40.5516 40.4278 36.9595 43.3758 32.7568 45.1166C28.5541 46.8574 23.9296 47.3129 19.468 46.4254C15.0065 45.538 10.9083 43.3474 7.69165 40.1308C4.47504 36.9142 2.28449 32.816 1.39703 28.3545C0.509557 23.8929 0.965023 19.2684 2.70583 15.0657C4.44663 10.863 7.39459 7.27087 11.1769 4.74359C14.1592 2.75089 17.5546 1.49075 21.0874 1.04681C22.6628 0.848839 23.955 2.15454 23.955 3.74236C23.955 5.33017 22.6591 6.59296 21.0933 6.85639C18.6999 7.25905 16.4073 8.16419 14.3714 9.52453C11.5347 11.42 9.32374 14.1141 8.01814 17.2661C6.71254 20.4181 6.37094 23.8865 7.03654 27.2327C7.70214 30.5789 9.34505 33.6525 11.7575 36.065C14.17 38.4774 17.2436 40.1203 20.5898 40.7859C23.936 41.4515 27.4044 41.1099 30.5564 39.8043C33.7084 38.4987 36.4025 36.2877 38.2979 33.4509C39.6583 31.415 40.5634 29.1225 40.966 26.7291C41.2295 25.1633 42.4923 23.8674 44.0801 23.8674Z" fill="#FF0700"/>
<path d="M40.2185 40.1308C38.0828 42.2666 35.5473 43.9607 32.7568 45.1166C29.9663 46.2725 26.9755 46.8674 23.9551 46.8674C20.9347 46.8674 17.9438 46.2725 15.1534 45.1166C12.3629 43.9607 9.82737 42.2666 7.69162 40.1308C5.55587 37.9951 3.86171 35.4596 2.70585 32.6691C1.54999 29.8786 0.955078 26.8878 0.955078 23.8674C0.955079 20.847 1.54999 17.8561 2.70585 15.0656C3.86171 12.2752 5.55588 9.73966 7.69162 7.60391L11.7575 11.6698C10.1557 13.2716 8.88505 15.1732 8.01816 17.2661C7.15126 19.3589 6.70508 21.6021 6.70508 23.8674C6.70508 26.1327 7.15126 28.3758 8.01816 30.4687C8.88505 32.5615 10.1557 34.4631 11.7575 36.065C13.3593 37.6668 15.2609 38.9374 17.3538 39.8043C19.4467 40.6712 21.6898 41.1174 23.9551 41.1174C26.2204 41.1174 28.4635 40.6712 30.5564 39.8043C32.6492 38.9374 34.5509 37.6668 36.1527 36.065L40.2185 40.1308Z" fill="#4999E8"/>
</svg>
