<svg width="16" height="17" viewBox="0 0 16 17" fill="none" xmlns="http://www.w3.org/2000/svg">
<path d="M11.5538 4.8957C10.8927 2.36923 8.59636 0.5 5.87287 0.5C2.63452 0.5 0 3.1422 0 6.39C0 9.1439 1.89447 11.4621 4.44487 12.1033C4.77445 13.3629 5.5108 14.4775 6.53884 15.2729C7.56688 16.0684 8.8287 16.4999 10.1271 16.5C13.3654 16.5 16 13.8578 16 10.6102C15.9997 7.90237 14.1467 5.54453 11.5538 4.8957ZM1.06356 6.39C1.06356 3.73033 3.22094 1.56667 5.87287 1.56667C8.5248 1.56667 10.6822 3.73033 10.6822 6.39C10.6822 9.04967 8.52477 11.2133 5.87287 11.2133C3.22097 11.2133 1.06356 9.04937 1.06356 6.39ZM10.1271 15.4333C8.102 15.4333 6.29796 14.1382 5.6122 12.2736C5.69861 12.2774 5.78549 12.2797 5.87287 12.2797C6.2375 12.2797 6.60135 12.2457 6.9597 12.1782L10.2044 15.4323C10.1785 15.4328 10.1528 15.4333 10.1271 15.4333ZM11.5074 15.2306L8.11832 11.8318C8.64125 11.6137 9.13003 11.321 9.56949 10.9627L13.041 14.4443C12.5812 14.797 12.0616 15.0634 11.5072 15.2306H11.5074ZM13.8107 13.7075L10.3316 10.2186C10.7126 9.77315 11.0253 9.2732 11.2592 8.73523L14.6795 12.1655C14.4872 12.7289 14.1925 13.2517 13.8104 13.7075H13.8107ZM14.9272 10.9051L11.6228 7.59107C11.7047 7.19595 11.7459 6.79343 11.7458 6.38987C11.7458 6.28037 11.7425 6.17163 11.7366 6.06363C12.672 6.39859 13.4814 7.01513 14.0542 7.82896C14.627 8.64278 14.9351 9.61417 14.9365 10.6103C14.9362 10.7092 14.9328 10.8075 14.9269 10.9051H14.9272Z" fill="#6C757D"/>
<path d="M9.67088 6.16473L10.1865 6.03427L9.92633 5L9.4107 5.13043C8.3531 5.39961 7.39102 5.95856 6.63207 6.74479C5.87313 7.53101 5.34724 8.51349 5.11324 9.58233L5 10.1034L6.03917 10.3306L6.15237 9.80943C6.34644 8.93548 6.77784 8.13243 7.39884 7.48916C8.01983 6.84589 8.80619 6.38751 9.67088 6.16473Z" fill="#6C757D"/>
</svg>
